<?xml version="1.0" encoding="utf-8"?>
<!-- Generator: Adobe Illustrator 17.0.0, SVG Export Plug-In . SVG Version: 6.00 Build 0)  -->
<!DOCTYPE svg PUBLIC "-//W3C//DTD SVG 1.1//EN" "http://www.w3.org/Graphics/SVG/1.1/DTD/svg11.dtd">
<svg version="1.1" id="Layer_1" xmlns="http://www.w3.org/2000/svg" xmlns:xlink="http://www.w3.org/1999/xlink" x="0px" y="0px"
	 width="50px" height="50px" viewBox="0 0 50 50" enable-background="new 0 0 50 50" xml:space="preserve">
<path fill="#3E2A47" d="M23.896,31.209c2.59-1.72,4.302-4.659,4.302-7.994c0-5.29-4.303-9.593-9.593-9.593
	c-5.29,0-9.593,4.303-9.593,9.593c0,3.335,1.712,6.275,4.302,7.994c-5.86,2.162-10.057,7.787-10.057,14.389h2.558
	c0-7.053,5.737-12.79,12.79-12.79c7.053,0,12.79,5.737,12.79,12.79h2.558C33.953,38.996,29.756,33.371,23.896,31.209z
	 M18.605,30.249c-3.879,0-7.035-3.156-7.035-7.035s3.156-7.035,7.035-7.035s7.035,3.156,7.035,7.035S22.484,30.249,18.605,30.249z"
	/>
<path fill="#9A5AA4" d="M36.686,24.814c2.59-1.72,4.302-4.659,4.302-7.994c0-5.29-4.303-9.593-9.593-9.593
	c-2.563,0-4.888,1.016-6.61,2.659c-0.638,0.608-1.189,1.304-1.641,2.066c0.798,0.323,1.557,0.721,2.261,1.198
	c0.452-0.736,1.034-1.381,1.717-1.905c1.186-0.912,2.665-1.46,4.274-1.46c3.879,0,7.035,3.156,7.035,7.035
	c0,3.22-2.177,5.935-5.135,6.767c-0.605,0.17-1.241,0.268-1.9,0.268c-0.226,0-0.449-0.013-0.67-0.034
	c-0.046,0.921-0.19,1.814-0.431,2.671c0.366-0.032,0.727-0.079,1.101-0.079c0.519,0,1.029,0.04,1.532,0.101
	c6.332,0.761,11.258,6.156,11.258,12.689h2.558C46.743,32.601,42.546,26.976,36.686,24.814z"/>
</svg>
